<svg xmlns="http://www.w3.org/2000/svg" viewBox="0 0 47.31 38.42"><defs><style>.cls-1{fill:#00acee;}</style></defs><g id="レイヤー_2" data-name="レイヤー 2"><g id="レイヤー_1-2" data-name="レイヤー 1"><path class="cls-1" d="M42.45,9.58c0,.42,0,.84,0,1.26,0,12.81-9.76,27.58-27.59,27.58A27.42,27.42,0,0,1,0,34.07a20,20,0,0,0,2.34.12,19.43,19.43,0,0,0,12-4.14,9.72,9.72,0,0,1-9.07-6.73,12.21,12.21,0,0,0,1.83.15,10.32,10.32,0,0,0,2.56-.33,9.69,9.69,0,0,1-7.78-9.51v-.12A9.76,9.76,0,0,0,6.3,14.74a9.72,9.72,0,0,1-3-13,27.57,27.57,0,0,0,20,10.15,10.94,10.94,0,0,1-.24-2.22A9.71,9.71,0,0,1,39.83,3.06,19.13,19.13,0,0,0,46,.72a9.64,9.64,0,0,1-4.27,5.34,19.41,19.41,0,0,0,5.59-1.5A21.06,21.06,0,0,1,42.45,9.58Z"/></g></g></svg>