<svg xmlns="http://www.w3.org/2000/svg" xmlns:xlink="http://www.w3.org/1999/xlink" viewBox="0 0 50.35 50.34"><defs><style>.cls-1{fill:url(#新規グラデーションスウォッチ_1);}</style><linearGradient id="新規グラデーションスウォッチ_1" x1="25.67" y1="-0.06" x2="24.68" y2="50.41" gradientUnits="userSpaceOnUse"><stop offset="0" stop-color="#405de6"/><stop offset="0.1" stop-color="#5851db"/><stop offset="0.2" stop-color="#833ab4"/><stop offset="0.25" stop-color="#9d38a0"/><stop offset="0.32" stop-color="#c13584"/><stop offset="0.43" stop-color="#e1306c"/><stop offset="0.54" stop-color="#fd1d1d"/><stop offset="0.66" stop-color="#f56040"/><stop offset="0.78" stop-color="#f77737"/><stop offset="0.9" stop-color="#fcaf45"/><stop offset="1" stop-color="#ffdc80"/></linearGradient></defs><g id="レイヤー_2" data-name="レイヤー 2"><g id="レイヤー_1-2" data-name="レイヤー 1"><path class="cls-1" d="M25.18,12.26A12.91,12.91,0,1,0,38.09,25.17,12.89,12.89,0,0,0,25.18,12.26Zm0,21.3a8.39,8.39,0,1,1,8.39-8.39A8.41,8.41,0,0,1,25.18,33.56ZM41.63,11.74a3,3,0,1,1-3-3A3,3,0,0,1,41.63,11.74Zm8.55,3c-.19-4-1.11-7.6-4.07-10.55S39.6.38,35.56.18,19-.06,14.79.18,7.2,1.29,4.24,4.23.38,10.75.18,14.78-.06,31.4.18,35.55,1.29,43.16,4.24,46.1,10.76,50,14.79,50.17s16.62.23,20.77,0,7.61-1.12,10.55-4.07S50,39.58,50.18,35.55,50.41,19,50.18,14.79ZM44.81,40A8.51,8.51,0,0,1,40,44.8c-3.31,1.31-11.17,1-14.84,1s-11.53.29-14.84-1A8.53,8.53,0,0,1,5.56,40c-1.32-3.31-1-11.18-1-14.84s-.3-11.54,1-14.84a8.45,8.45,0,0,1,4.78-4.78c3.32-1.32,11.18-1,14.84-1s11.54-.3,14.84,1a8.5,8.5,0,0,1,4.79,4.78c1.31,3.32,1,11.18,1,14.84S46.12,36.71,44.81,40Z"/></g></g></svg>