<svg xmlns="http://www.w3.org/2000/svg" viewBox="0 0 49.23 46.92"><defs><style>.cls-1{fill:#fff;}.cls-2{fill:#00b600;}</style></defs><g id="レイヤー_2" data-name="レイヤー 2"><g id="レイヤー_1-2" data-name="レイヤー 1"><path class="cls-1" d="M32,15.14V25.87a.47.47,0,0,1-.48.48H29.78a.49.49,0,0,1-.39-.19l-4.92-6.65v6.37a.48.48,0,0,1-.49.49H22.26a.48.48,0,0,1-.48-.49V15.15a.47.47,0,0,1,.48-.48H24a.47.47,0,0,1,.39.21l4.92,6.64V15.15a.47.47,0,0,1,.48-.48h1.72A.48.48,0,0,1,32,15.14Zm-12.37-.49H17.88a.48.48,0,0,0-.48.49V25.87a.47.47,0,0,0,.48.48h1.73a.47.47,0,0,0,.48-.48V15.14A.49.49,0,0,0,19.61,14.65Zm-4.16,9H10.76V15.14a.48.48,0,0,0-.48-.49H8.56a.49.49,0,0,0-.49.49V25.87a.45.45,0,0,0,.14.33.5.5,0,0,0,.33.14h6.9a.48.48,0,0,0,.48-.49V24.13A.48.48,0,0,0,15.45,23.65Zm25.59-9h-6.9a.49.49,0,0,0-.48.49V25.87a.48.48,0,0,0,.48.48H41a.47.47,0,0,0,.48-.48V24.15a.47.47,0,0,0-.48-.48h-4.7V21.85H41a.47.47,0,0,0,.48-.48V19.64a.48.48,0,0,0-.48-.49h-4.7V17.34H41a.47.47,0,0,0,.48-.48V15.14a.52.52,0,0,0-.48-.49ZM49.23,20c0-11-11-20-24.61-20S0,9,0,20c0,9.87,8.75,18.14,20.59,19.71,2.88.62,2.55,1.68,1.9,5.56-.11.62-.5,2.43,2.13,1.33S38.79,38.23,44,32.28C47.53,28.36,49.23,24.39,49.23,20ZM15.45,23.66H10.76V15.15a.48.48,0,0,0-.48-.49H8.56a.48.48,0,0,0-.49.49V25.88a.45.45,0,0,0,.14.33.54.54,0,0,0,.33.13h6.9a.47.47,0,0,0,.48-.48V24.14A.48.48,0,0,0,15.45,23.66Z"/><rect class="cls-2" x="17.4" y="14.66" width="2.69" height="11.67" rx="0.45"/><rect class="cls-2" x="8.07" y="14.68" width="2.69" height="11.67" rx="0.45"/><rect class="cls-1" x="9.45" y="23.67" width="6.47" height="2.67" rx="0.5"/><rect class="cls-2" x="9.45" y="23.67" width="6.47" height="2.67" rx="0.5"/><rect class="cls-2" x="33.66" y="14.67" width="2.69" height="11.67" rx="0.45"/><rect class="cls-2" x="35.01" y="23.67" width="6.51" height="2.68" rx="0.46"/><rect class="cls-2" x="35.01" y="19.16" width="6.51" height="2.68" rx="0.46"/><rect class="cls-2" x="35.01" y="14.67" width="6.51" height="2.68" rx="0.46"/><rect class="cls-2" x="21.78" y="14.67" width="2.69" height="11.7" rx="0.48"/><rect class="cls-2" x="29.28" y="14.65" width="2.7" height="11.7" rx="0.48"/><rect class="cls-2" x="25.53" y="14.22" width="2.7" height="12.65" rx="0.36" transform="translate(-6.95 19.97) rotate(-36.41)"/></g></g></svg>